<svg xmlns="http://www.w3.org/2000/svg" viewBox="0 0 196.96 196.96"><defs><style>.cls-1{fill:#8dd4f7;}</style></defs><g id="Layer_2" data-name="Layer 2"><g id="Layer_1-2" data-name="Layer 1"><path class="cls-1" d="M181.13,196.36h0a15,15,0,0,1-10.66-4.44l-59-59.15a3.92,3.92,0,0,1,0-5.56l15.76-15.76A3.93,3.93,0,0,1,130,110.3h0a3.9,3.9,0,0,1,2.78,1.16l59,59.16a15.12,15.12,0,0,1,0,21.32A15,15,0,0,1,181.13,196.36ZM119.8,130,176,186.36h0a7.17,7.17,0,0,0,5.1,2.12h0a7.21,7.21,0,0,0,5.1-12.29L130,119.81Z"/><path class="cls-1" d="M90.6,94.54a3.91,3.91,0,0,1-2.78-1.15L28.73,34.3a3.94,3.94,0,0,1,5.57-5.57L93.39,87.82a3.94,3.94,0,0,1-2.79,6.72Z"/><path class="cls-1" d="M122.12,126.05a3.93,3.93,0,0,1-2.79-1.15l-15.76-15.76a3.94,3.94,0,1,1,5.57-5.57l15.76,15.76a3.94,3.94,0,0,1-2.78,6.72Z"/><path class="cls-1" d="M23.64,43.33a4,4,0,0,1-.49,0,3.93,3.93,0,0,1-2.89-1.88L8.44,21.72A4,4,0,0,1,9,16.91L16.91,9a4,4,0,0,1,4.81-.59l19.7,11.82a3.94,3.94,0,0,1,.76,6.16L26.42,42.18A4,4,0,0,1,23.64,43.33Zm-6.86-23L24.42,33,33,24.42,20.31,16.78Z"/><path class="cls-1" d="M31.51,197a31.52,31.52,0,0,1,0-63,30.85,30.85,0,0,1,8.86,1.33l80.9-80.9a38.19,38.19,0,0,1-3.09-15A39.43,39.43,0,0,1,157.57,0a38.92,38.92,0,0,1,17.65,4.23,3.95,3.95,0,0,1,1,6.31L157.57,29.21V39.39h10.18l18.6-18.6a3.88,3.88,0,0,1,3.42-1.1,4,4,0,0,1,2.89,2.12A38.88,38.88,0,0,1,197,39.39a39.43,39.43,0,0,1-39.39,39.39,38.15,38.15,0,0,1-15-3.09l-80.9,80.9A30.85,30.85,0,0,1,63,165.45,31.55,31.55,0,0,1,31.51,197Zm0-55.15A23.88,23.88,0,1,0,53.5,157a3.94,3.94,0,0,1,.89-4.2L139,68.18a4,4,0,0,1,4.55-.74,31.06,31.06,0,0,0,14,3.47,31.55,31.55,0,0,0,31.51-31.52,29.81,29.81,0,0,0-1.35-8.83L172.17,46.12a4,4,0,0,1-2.78,1.15H153.63a3.93,3.93,0,0,1-3.94-3.94V27.57a4,4,0,0,1,1.15-2.78L166.45,9.18a30.93,30.93,0,0,0-8.88-1.3,31.55,31.55,0,0,0-31.52,31.51,31.09,31.09,0,0,0,3.47,14,3.94,3.94,0,0,1-.74,4.55L44.2,142.57a3.91,3.91,0,0,1-4.2.89A23.54,23.54,0,0,0,31.51,141.81Z"/><path class="cls-1" d="M31.51,181.2a15.76,15.76,0,1,1,15.76-15.75A15.76,15.76,0,0,1,31.51,181.2Zm0-23.63a7.88,7.88,0,1,0,7.88,7.88A7.88,7.88,0,0,0,31.51,157.57Z"/></g></g></svg>