<svg xmlns="http://www.w3.org/2000/svg" viewBox="0 0 155.77 185.11"><defs><style>.cls-1{fill:#8dd4f7;}</style></defs><g id="Layer_2" data-name="Layer 2"><g id="Layer_1-2" data-name="Layer 1"><path class="cls-1" d="M95.63,106.05a45.91,45.91,0,0,0,19-15.36c15.84-.6,28.54-12.21,28.54-26.45,0-11.38-8.13-21.08-19.48-24.83C121.41,17.32,101.59,0,77.56,0s-44,17.46-46.16,39.68c-11.14,3.93-19,13.45-19,24.56,0,14.61,13.63,26.5,30.39,26.5-.78,0-1.54,0-2.31-.1a45.86,45.86,0,0,0,19.27,15.5A78,78,0,0,0,0,181.87a3.24,3.24,0,0,0,3.24,3.24H152.53a3.24,3.24,0,0,0,3.24-3.24A78,78,0,0,0,95.63,106.05Zm17.74-15.31Zm0-53Zm23.33,26.5c0,10.1-8.76,18.48-20.09,19.84V44.4C127.94,45.76,136.7,54.14,136.7,64.24ZM77.56,6.47C97.47,6.47,114,20.14,117,38c-.77-.08-1.55-.13-2.34-.16a45.5,45.5,0,0,0-74.18.05c.77-.05,1.53-.1,2.31-.1a33.78,33.78,0,0,0-4.64.34C41,20.21,57.6,6.47,77.56,6.47Zm-38,77.62c-11.66-1.33-20.67-9.72-20.67-19.85s9-18.52,20.67-19.85ZM46,87.27v-6a46.72,46.72,0,0,0,16.51,10,6,6,0,1,0,1.92-6.19A40.76,40.76,0,0,1,46,71.66V41.21a39,39,0,0,1,64.14,1.45V85.82A39.05,39.05,0,0,1,46,87.27ZM6.54,178.63a71.41,71.41,0,0,1,142.68,0Z"/></g></g></svg>