<?xml version="1.0" encoding="utf-8"?>
<!-- Generator: Adobe Illustrator 25.0.1, SVG Export Plug-In . SVG Version: 6.00 Build 0)  -->
<svg version="1.1" id="Layer_1" xmlns="http://www.w3.org/2000/svg" xmlns:xlink="http://www.w3.org/1999/xlink" x="0px" y="0px"
	 viewBox="0 0 1077 107" style="enable-background:new 0 0 1077 107;" xml:space="preserve">
<style type="text/css">
	.st0{fill-rule:evenodd;clip-rule:evenodd;fill:#DA291C;}
</style>
<g>
	<g>
		<polygon class="st0" points="276.46,57.26 298.36,57.26 301.91,66.03 272.34,66.03 267.62,76.11 254.57,76.11 286.95,9.75 
			295.98,9.75 328.35,76.11 315.3,76.11 291.46,24.87 		"/>
		<polygon class="st0" points="29.32,57.75 51.22,57.75 54.77,66.52 25.2,66.52 20.48,76.59 7.43,76.59 39.8,10.24 48.84,10.24 
			81.21,76.59 68.17,76.59 44.32,25.36 		"/>
		<polygon class="st0" points="152.42,57.75 174.33,57.75 177.88,66.52 148.31,66.52 143.59,76.59 130.54,76.59 162.91,10.24 
			171.95,10.24 204.32,76.59 191.27,76.59 167.43,25.36 		"/>
		<polygon class="st0" points="69.02,10.03 101.38,76.39 101.92,76.39 109.87,76.39 110.42,76.39 142.79,10.03 129.75,10.03 
			105.9,62.23 82.05,10.03 		"/>
		<polygon class="st0" points="222.4,101.29 267.08,10.03 254.05,10.03 229.21,63.21 206.35,10.03 193.31,10.03 222.74,76.38 
			209.92,101.29 		"/>
	</g>
	<g>
		<rect x="399.01" y="10.24" width="3.39" height="66.36"/>
		<g>
			<polygon points="495.5,29.14 474.06,29.14 474.06,41.13 493.24,41.13 493.24,44.75 474.06,44.75 474.06,57.05 495.75,57.05 
				495.75,60.66 470.1,60.66 470.1,25.52 495.5,25.52 			"/>
			<polygon points="525.63,60.66 521.16,60.66 513.13,50.07 505.05,60.66 500.73,60.66 510.92,47.46 501.13,34.71 505.55,34.71 
				513.23,44.75 520.91,34.71 525.22,34.71 515.39,47.36 			"/>
			<g>
				<path d="M545.71,61.21c-4.82,0-7.93-2.61-9.94-5.52v13h-3.86V34.71h3.86v5.22c2.11-3.11,5.17-5.77,9.94-5.77
					c6.22,0,12.4,4.92,12.4,13.5C558.11,56.19,551.99,61.21,545.71,61.21 M545.01,37.62c-4.82,0-9.39,4.02-9.39,10.04
					c0,6.07,4.57,10.09,9.39,10.09c5.02,0,9.14-3.72,9.14-10.04C554.14,41.53,549.93,37.62,545.01,37.62"/>
				<path d="M576.7,57.9c3.56,0,6.07-1.46,8.18-3.66l2.41,2.16c-2.61,2.91-5.77,4.87-10.69,4.87c-7.13,0-12.95-5.47-12.95-13.56
					c0-7.53,5.27-13.55,12.45-13.55c7.68,0,12.1,6.12,12.1,13.75c0,0.35,0,0.75-0.05,1.21h-20.59
					C568.11,54.74,572.13,57.9,576.7,57.9 M584.27,46.25c-0.4-4.72-3.11-8.84-8.28-8.84c-4.52,0-7.93,3.77-8.44,8.84H584.27z"/>
				<path d="M598.84,60.66h-3.87V34.71h3.87v6.78c1.91-4.32,5.67-7.43,10.59-7.23v4.16h-0.3c-5.67,0-10.29,4.07-10.29,11.9V60.66z"
					/>
				<path d="M615.41,24.77h4.42v4.27h-4.42V24.77z M615.66,34.71h3.87v25.96h-3.87V34.71z"/>
				<path d="M639.96,57.9c3.57,0,6.08-1.46,8.18-3.66l2.41,2.16c-2.61,2.91-5.77,4.87-10.69,4.87c-7.13,0-12.95-5.47-12.95-13.56
					c0-7.53,5.27-13.55,12.45-13.55c7.68,0,12.1,6.12,12.1,13.75c0,0.35,0,0.75-0.05,1.21h-20.59
					C631.37,54.74,635.39,57.9,639.96,57.9 M647.54,46.25c-0.4-4.72-3.11-8.84-8.28-8.84c-4.52,0-7.93,3.77-8.44,8.84H647.54z"/>
				<path d="M662.1,60.66h-3.87V34.71h3.87v4.52c1.71-2.81,4.42-5.07,8.89-5.07c6.27,0,9.94,4.21,9.94,10.39v16.11h-3.87V45.5
					c0-4.82-2.61-7.83-7.18-7.83c-4.47,0-7.78,3.27-7.78,8.13V60.66z"/>
				<path d="M700.86,61.26c-7.58,0-13.3-6.17-13.3-13.5c0-7.38,5.72-13.6,13.3-13.6c4.92,0,7.98,2.06,10.39,4.62l-2.56,2.71
					c-2.06-2.16-4.37-3.91-7.88-3.91c-5.27,0-9.29,4.47-9.29,10.09c0,5.67,4.12,10.14,9.54,10.14c3.31,0,5.87-1.66,7.93-3.86
					l2.46,2.31C708.85,59.16,705.73,61.26,700.86,61.26"/>
				<path d="M728.58,57.9c3.56,0,6.07-1.46,8.18-3.66l2.41,2.16c-2.61,2.91-5.77,4.87-10.69,4.87c-7.13,0-12.95-5.47-12.95-13.56
					c0-7.53,5.27-13.55,12.45-13.55c7.68,0,12.1,6.12,12.1,13.75c0,0.35,0,0.75-0.05,1.21h-20.59C720,54.74,724.01,57.9,728.58,57.9
					 M736.16,46.25c-0.4-4.72-3.11-8.84-8.28-8.84c-4.52,0-7.93,3.77-8.43,8.84H736.16z"/>
				<path d="M755.45,61.16c-3.72,0-7.83-1.46-10.74-3.81l1.96-2.76c2.81,2.11,5.92,3.31,8.98,3.31c3.11,0,5.37-1.61,5.37-4.12v-0.1
					c0-2.61-3.06-3.61-6.48-4.57c-4.07-1.16-8.59-2.56-8.59-7.33v-0.1c0-4.47,3.71-7.43,8.84-7.43c3.16,0,6.68,1.1,9.34,2.86
					l-1.75,2.91c-2.41-1.56-5.18-2.51-7.68-2.51c-3.06,0-5.02,1.61-5.02,3.76v0.1c0,2.46,3.22,3.41,6.68,4.47
					c4.02,1.21,8.34,2.76,8.34,7.43v0.1C764.68,58.3,760.62,61.16,755.45,61.16"/>
				<polygon points="796.7,60.66 792.68,60.66 792.68,29.19 780.89,29.19 780.89,25.52 808.5,25.52 808.5,29.19 796.7,29.19 				"/>
				<path d="M818.45,60.66h-3.87V24.01h3.87v15.21c1.71-2.81,4.42-5.07,8.89-5.07c6.27,0,9.94,4.21,9.94,10.39v16.11h-3.87V45.5
					c0-4.82-2.61-7.83-7.18-7.83c-4.47,0-7.78,3.27-7.78,8.13V60.66z"/>
				<path d="M847.02,39.68l-1.16-3.16c2.86-1.31,5.67-2.16,9.44-2.16c7.08,0,11.04,3.61,11.04,10.44v15.86h-3.71v-3.92
					c-1.81,2.36-4.82,4.47-9.39,4.47c-4.82,0-9.69-2.71-9.69-8.13c0-5.52,4.52-8.43,11.09-8.43c3.31,0,5.67,0.45,7.98,1.11v-0.91
					c0-4.67-2.86-7.08-7.73-7.08C851.84,37.77,849.42,38.57,847.02,39.68 M847.47,52.93c0,3.31,3.01,5.22,6.52,5.22
					c4.77,0,8.69-2.91,8.69-7.03v-2.51c-1.91-0.55-4.47-1.1-7.63-1.1C850.18,47.51,847.47,49.62,847.47,52.93"/>
				<path d="M879.6,53.28c0,3.16,1.75,4.32,4.37,4.32c1.31,0,2.41-0.25,3.76-0.91v3.32c-1.35,0.7-2.81,1.1-4.67,1.1
					c-4.16,0-7.33-2.06-7.33-7.33V38.12h-3.61v-3.41h3.61v-7.83h3.86v7.83h8.23v3.41h-8.23V53.28z"/>
				<polygon points="927.25,51.02 927.05,51.02 914.25,32.25 914.25,60.66 910.38,60.66 910.38,25.52 914.4,25.52 927.2,44.7 
					940,25.52 944.02,25.52 944.02,60.66 940.05,60.66 940.05,32.2 				"/>
				<path d="M954.82,39.68l-1.15-3.16c2.86-1.31,5.67-2.16,9.44-2.16c7.08,0,11.04,3.61,11.04,10.44v15.86h-3.71v-3.92
					c-1.81,2.36-4.82,4.47-9.39,4.47c-4.82,0-9.69-2.71-9.69-8.13c0-5.52,4.52-8.43,11.09-8.43c3.31,0,5.68,0.45,7.98,1.11v-0.91
					c0-4.67-2.86-7.08-7.73-7.08C959.64,37.77,957.23,38.57,954.82,39.68 M955.27,52.93c0,3.31,3.01,5.22,6.52,5.22
					c4.77,0,8.68-2.91,8.68-7.03v-2.51c-1.91-0.55-4.47-1.1-7.63-1.1C957.98,47.51,955.27,49.62,955.27,52.93"/>
				<path d="M987.4,53.28c0,3.16,1.75,4.32,4.37,4.32c1.31,0,2.41-0.25,3.76-0.91v3.32c-1.35,0.7-2.81,1.1-4.67,1.1
					c-4.16,0-7.33-2.06-7.33-7.33V38.12h-3.61v-3.41h3.61v-7.83h3.86v7.83h8.23v3.41h-8.23V53.28z"/>
				<path d="M1007.69,53.28c0,3.16,1.75,4.32,4.37,4.32c1.31,0,2.41-0.25,3.77-0.91v3.32c-1.35,0.7-2.81,1.1-4.67,1.1
					c-4.17,0-7.33-2.06-7.33-7.33V38.12h-3.61v-3.41h3.61v-7.83h3.87v7.83h8.23v3.41h-8.23V53.28z"/>
				<path d="M1033.5,57.9c3.56,0,6.07-1.46,8.18-3.66l2.41,2.16c-2.61,2.91-5.77,4.87-10.69,4.87c-7.13,0-12.95-5.47-12.95-13.56
					c0-7.53,5.27-13.55,12.45-13.55c7.68,0,12.1,6.12,12.1,13.75c0,0.35,0,0.75-0.05,1.21h-20.59
					C1024.91,54.74,1028.93,57.9,1033.5,57.9 M1041.08,46.25c-0.4-4.72-3.11-8.84-8.28-8.84c-4.52,0-7.93,3.77-8.43,8.84H1041.08z"
					/>
				<path d="M1055.64,60.66h-3.86V34.71h3.86v6.78c1.91-4.32,5.68-7.43,10.59-7.23v4.16h-0.3c-5.68,0-10.29,4.07-10.29,11.9V60.66z"
					/>
			</g>
		</g>
	</g>
</g>
</svg>
